# xmcd CD database file
#
# Track frame offsets:
#	150
#	14104
#	28073
#	40499
#	53121
#	65884
#	78414
#	91314
#	105454
#	117811
#	128813
#	142130
#	156579
#	170629
#	183494
#	195701
#	206863
#	218386
#	230997
#	242427
#	255199
#	267597
#
# Disc length: 3753 seconds
#
# Revision: 0
# Processed by: cddbd v1.4PL0 Copyright (c) Steve Scherf et al.
# Submitted via: CDex 1.50
#
DISCID=4d0ea716
DTITLE=Blind Boy Fuller - Untrue Blues
DYEAR=1900
DGENRE=Blues
TTITLE0=Catman Blues
TTITLE1=Rag Mama Rag
TTITLE2=Lost Lover Blues
TTITLE3=Precious Lord
TTITLE4=Shake it Baby
TTITLE5=When you are gone
TTITLE6=Boots and shoes
TTITLE7=Homesick and Lonesome
TTITLE8=I want some of your pie
TTITLE9=Get your yas yas out
TTITLE10=Step it up and go
TTITLE11=Weeping willow
TTITLE12=Trucking my blues away
TTITLE13=Funny feeling blues
TTITLE14=Pistol slapper blues
TTITLE15=Heart ease blues
TTITLE16=Jivin' woman blues
TTITLE17=Sweet honey hole
TTITLE18=Jitterbug rag
TTITLE19=Untrue blues
TTITLE20=Big leg woman gets my pay
TTITLE21=Rattlesnakin daddy
EXTD=
EXTT0=
EXTT1=
EXTT2=
EXTT3=
EXTT4=
EXTT5=
EXTT6=
EXTT7=
EXTT8=
EXTT9=
EXTT10=
EXTT11=
EXTT12=
EXTT13=
EXTT14=
EXTT15=
EXTT16=
EXTT17=
EXTT18=
EXTT19=
EXTT20=
EXTT21=
PLAYORDER=
